<svg xmlns="http://www.w3.org/2000/svg" xmlns:xlink="http://www.w3.org/1999/xlink" version="1.1" width="1131.04pt" height="630.49pt" viewBox="0 0 1131.04 630.49">
<g>
<path d="M755.258 254.195 741.609 255.879 740.051 269.523 748.762 268.449C753.391 267.883 755.375 264.199 756.074 258.074 756.246 256.555 756.273 255.242 756.148 254.141 755.863 254.141 755.57 254.156 755.258 254.195" fill="#698937"/>
<path d="M963.871 324.34 950.828 325.945 949.367 338.75 957.473 337.754C963.688 336.988 964.406 333.816 965.121 327.57 965.262 326.332 965.32 325.227 965.258 324.262 964.832 324.258 964.375 324.277 963.871 324.34" fill="#698937"/>
<path d="M1056.941 378.383C1044.191 381.609 1018.078 385.184 1018.078 385.184 1012.199 386.086 1001.969 386.535 997.949 379.184 993.895 376.914 991.117 372.445 992.074 364.055L997.57 315.875C999.637 297.758 1013.949 293.719 1022.57 292.656 1022.57 292.656 1048.16 289.504 1062.191 289.672L1061.691 294.094C1063.41 294.047 1065.059 294.023 1066.559 294.039L1064.328 313.625 1031.789 317.633C1025.449 318.41 1025.059 321.895 1024.691 325.141L1024.629 325.648 1052.34 323.344 1051.801 328.117 1056.711 327.711 1054.512 347.055 1021.602 352.176 1021 357.461C1020.949 357.891 1020.93 358.281 1020.922 358.652 1021.75 358.625 1022.629 358.516 1023.469 358.41L1054.789 354.551 1054.219 359.527 1059.16 358.922ZM961.703 391.773 960.438 387.023 957.332 387.402 950.496 361.703 946.676 361.285 942.938 394.086 919.297 396.996 919.863 392.02 914.926 392.629 924.961 304.68 964.809 299.773C974.578 298.566 982.398 300 986.375 306.398 991.883 309.781 994.652 316.73 993.254 329.016 990.863 349.918 983.562 353.898 977.074 357.066L988.633 388.457ZM874.996 403.047C864.5 404.34 853.031 406.129 847.191 397.105 840.945 393.18 837.34 383.996 839.621 363.996L845.27 314.496 868.91 311.586 868.34 316.562 873.277 315.953 867.629 365.453C867.047 370.547 866.625 374.727 867.391 377.652 868.832 378.008 870.672 378.059 873.012 377.773 883.855 376.438 884.938 369.074 886.172 358.262L891.816 308.762 915.578 305.836 915.012 310.812 919.949 310.203 914.301 359.703C909.875 398.512 889.738 401.23 874.996 403.047ZM808.652 410.625 785.012 413.535 785.582 408.559 780.645 409.168 787.727 347.105 770.238 349.258 770.809 344.277 765.871 344.887 768.258 323.984 837.469 315.453 836.902 320.434 841.84 319.824 839.453 340.734 816.301 343.582ZM785.887 274.773 791.535 225.277 815.172 222.363 814.605 227.34 819.539 226.734 813.895 276.234C813.312 281.324 812.891 285.504 813.656 288.43 815.098 288.785 816.938 288.84 819.277 288.551 830.117 287.215 831.199 279.855 832.434 269.043L838.082 219.543 861.844 216.613 861.277 221.594 866.215 220.984 860.562 270.484C856.137 309.293 836.004 312.008 821.262 313.824 810.762 315.117 799.297 316.906 793.457 307.883 787.207 303.957 783.602 294.777 785.887 274.773ZM930.812 208.121 930.246 213.098 935.184 212.488 932.797 233.395 900.27 277.984 923.164 275.164 922.594 280.141 927.531 279.531 925.148 300.438 862.637 308.137 863.203 303.156 858.266 303.766 860.652 282.863 896.441 237.871 870.285 241.094 870.852 236.117 865.918 236.727 868.301 215.82ZM962.25 204.246 961.684 209.223 966.617 208.617 963.199 238.602 978.977 236.66 982.965 201.695 1006.609 198.785 1006.039 203.762 1010.98 203.152 1000.941 291.102 977.301 294.012 977.867 289.035 972.93 289.645 976.023 262.539 960.246 264.484 956.582 296.562 932.945 299.477 933.512 294.5 928.574 295.109 938.609 207.16ZM1041.578 194.477 1069.48 191.039 1070.441 195.828 1073.852 195.406 1090.871 280.023 1066.621 283.008 1065.488 278.242 1062.25 278.641 1059.891 268.676 1039.129 271.234 1032.262 287.242 1008.012 290.23 1010.148 285.059 1003.641 285.859ZM1062.191 324.004H1115.629C1123.289 308.488 1128.391 292.176 1130.262 275.68 1138.469 203.254 1081.621 154.797 1003.281 167.441L711.527 212.145C714.848 219.281 717.902 226.57 720.652 234.008L755.582 229.703C763.715 228.699 772.844 228.848 777.375 236.195 782.535 239.359 785.742 246.016 784.246 259.152 781.023 287.391 764.434 291.684 753.32 292.223 748.488 292.465 738.078 292.086 737.508 291.801L736.613 299.645C737.75 308.844 738.465 318.176 738.734 327.617L761.801 324.777 761.23 329.754 766.168 329.145 756.137 417.094 732.496 420.004 730.152 415.387 728.125 415.637 728.039 415.465C725.574 424.289 722.703 432.941 719.457 441.41 716.441 449.289 713.102 457.016 709.441 464.555L810.434 451.23 745.168 441.457H884.504L973.543 429.707C1031.172 420.406 1084.371 380.633 1111.738 331.422L1062.191 324.004" fill="#698937"/>
<path d="M1056.27 244.672 1054.27 232.574 1048.891 245.578ZM1056.27 244.672" fill="#698937"/>
<path d="M178.164 327.645C177.914 316.109 166.926 302.91 153.484 291.836 151.973 301.855 150.973 312.035 150.496 322.355L164.547 311.758 178.164 327.645" fill="#65cbca"/>
<path d="M174.398 219.047C173.074 222.105 171.777 225.18 170.555 228.289 173.551 229.574 176.469 230.316 179.137 230.703 177.41 226.895 175.836 223.004 174.398 219.047" fill="#65cbca"/>
<path d="M470.324 82.98C477.93 82.113 485.66 81.074 493.504 79.859 496.488 76.617 499.215 73.082 501.363 69.68 503.094 66.945 504.457 64.285 505.273 61.945 506.211 59.277 505.957 56.359 505.422 53.461 505.078 51.566 504.613 49.68 504.289 47.871 484.984 43.891 464.996 41.793 444.516 41.793 442.102 41.793 439.695 41.824 437.293 41.883 450.395 53.668 461.578 67.543 470.324 82.98" fill="#65cbca"/>
<path d="M536.914 92.18C530.656 107.832 516.449 123.387 516.449 123.387 506.82 116.535 481.266 90.086 481.266 90.086 481.379 90.02 481.492 89.945 481.605 89.883 479.227 90.195 476.848 90.5 474.473 90.785 478.52 98.941 481.914 107.48 484.574 116.336 488.504 113.262 492.094 110.418 495.062 107.91L510.578 122.465C510.578 122.465 500.578 137.309 490.922 150.051 491.277 154.453 491.465 158.906 491.465 163.398 491.465 177.984 489.543 192.121 485.957 205.578L534.652 249.262 581.562 211.223 644.621 266.672 654.812 242.117 682.719 238.68 683.68 243.469 687.086 243.047 689.242 253.758 699.734 246.945 711.594 271.996 715.863 234.598 720.652 234.008C717.902 226.57 714.848 219.281 711.527 212.145 706.062 200.398 699.859 189.07 692.953 178.23L568.867 155.828H677.168C645.75 115.352 604.004 83.301 555.883 63.613 554.434 88.188 536.914 92.18 536.914 92.18" fill="#65cbca"/>
<path d="M738.121 328.023 738.16 327.688 738.734 327.617C738.465 318.176 737.75 308.844 736.613 299.645L734.297 319.941 738.121 328.023" fill="#65cbca"/>
<path d="M223.074 38.211C218.844 41.766 214.797 45.527 210.949 49.48 233.52 58.633 262.758 68.426 297.547 75.648 302.887 76.758 308.445 77.816 314.191 78.816 317.883 70.898 325.883 71.562 325.883 71.562L327.344 78.297C327.344 78.297 321.977 77.68 321.797 80.074 326.629 80.836 331.586 81.555 336.676 82.211L338.344 78.852C338.344 78.852 340.652 80.391 342.973 82.984 379.641 87.273 422.562 88.43 470.324 82.98 461.578 67.543 450.395 53.668 437.293 41.883 408.352 15.852 370.062 .004 328.07 .004 298.574 .004 270.906 7.82 247.02 21.496L342.281 25.668 223.074 38.211" fill="#f9cb09"/>
<path d="M219.805 116.438C273.672 104.715 285.031 150.18 285.031 150.18 285.031 150.18 283.293 150.148 279.742 145.477 276.191 140.805 266.098 132.84 229.855 140.785 193.617 148.727 186.27 172.762 186.27 172.762 186.27 172.762 176.938 131.121 219.805 116.438ZM287.223 177.875C290.711 193.461 281.516 199.07 281.516 199.07L278.504 193.891C276.539 197.949 274.125 195.551 274.125 195.551 274.859 200.121 273.176 233.984 245.914 237.789 218.664 241.598 208.594 206.754 208.594 206.754L204.266 215.922C200.816 216.145 195 210.961 194.375 205.984 193.746 201.004 187.766 183.438 187.766 183.438 188.176 155.133 215.309 146.922 231.363 142.504 247.418 138.086 271.758 136.984 278.691 146.941 285.629 156.898 288.508 159.203 288.508 159.203 288.508 159.203 283.734 162.289 287.223 177.875ZM191.609 230.305C200.273 238.176 215.652 241.68 215.652 241.68L222.82 241.039C258.457 263.461 273.488 228.215 273.488 228.215L281.078 228.168 281.688 228.336 277.289 248.988 280.461 246.395 301.371 151.738 303.609 147.762C303.41 138.75 308.277 130.43 308.277 130.43L318.672 133.23C319.219 142.555 313.281 150.793 313.281 150.793L312.812 154.164 292.312 241.73 295.902 243.289 299.359 230.461C299.359 230.461 315.848 222.852 320.273 221.191 333.309 216.312 341.691 213.223 347.227 211.125L404.996 132.953 436.07 160.828C436.082 160.809 436.094 160.785 436.105 160.766 444.562 146.895 467.75 129.484 484.574 116.336 481.914 107.48 478.52 98.941 474.473 90.785 467.621 91.609 460.777 92.32 453.938 92.895 446.914 93.484 439.887 93.941 432.875 94.266 404.215 95.59 375.688 94.715 347.512 91.656 347.676 92.633 347.727 93.645 347.629 94.691 343.309 121.285 320.629 126.762 320.629 126.762L319.258 131.859 308.66 129C309.887 125.965 307.195 122.27 307.195 122.27 307.195 122.27 309.277 99.723 311.965 86.609 306.469 85.641 300.988 84.594 295.531 83.453 258.961 75.832 228.398 65.398 205.125 55.785 179.941 84.531 164.672 122.184 164.672 163.398 164.672 182.941 168.109 201.68 174.398 219.047 175.836 223.004 177.41 226.895 179.137 230.703 186.293 231.75 191.609 230.305 191.609 230.305" fill="#f9cb09"/>
<path d="M313.906 119.266 321.133 121.648C330.008 117.922 336.883 102.941 340.859 95.484 341.75 93.812 341.98 92.316 341.809 90.996 334.219 90.094 326.656 89.035 319.125 87.812 314.945 102.113 313.906 119.266 313.906 119.266" fill="#f9cb09"/>
<path d="M461.227 183.395 485.957 205.578C489.543 192.121 491.465 177.984 491.465 163.398 491.465 158.906 491.277 154.453 490.922 150.051 488.145 153.711 485.395 157.199 482.914 160.113 475.164 169.23 466.742 177.438 461.227 183.395" fill="#f9cb09"/>
<path d="M483.195 426.379 483.445 426.352C483.363 426.336 483.285 426.316 483.203 426.301L483.195 426.379" fill="#65cbca"/>
<path d="M600.84 445.105C596.023 444.676 591.094 444.184 586.047 443.617L585.637 447.223 590.574 446.617 584.023 504.016C585.316 504.102 586.605 504.188 587.895 504.289L592.766 461.574C593.66 453.766 596.832 448.574 600.84 445.105" fill="#65cbca"/>
<path d="M469.938 481.492C459.215 482.816 456.34 485.895 453.887 507.398 452.957 515.547 452.602 520.941 453.531 524.305 453.852 524.379 454.184 524.445 454.539 524.488 459.418 523.414 464.312 522.234 469.211 520.945 472.953 517.637 474.75 511.445 476.082 499.762 477.113 490.727 477.344 484.992 476.32 481.52 474.668 481.129 472.57 481.172 469.938 481.492" fill="#65cbca"/>
<path d="M535.402 504.746C536.27 504.652 537.133 504.566 538 504.484L535.902 500.355 535.402 504.746" fill="#65cbca"/>
<path d="M408.547 420.293 415.93 419.383 414.789 412.504C413.859 412.32 412.93 412.133 412 411.945L408.547 420.293" fill="#65cbca"/>
<path d="M228.242 507.406C230.281 473.758 210.113 480.926 201.496 457.875 190.547 414.121 219.629 406.285 219.629 406.285 238.809 418.98 256.539 446.176 260.621 458.059 264.516 469.375 265.934 478.652 265.816 496.398 274.094 521.941 264.152 522.324 253.125 524.312 242.098 526.297 226.547 525.605 228.242 507.406ZM268.699 495.426C268.359 440.688 233.051 414.344 233.051 414.344 280.551 449 268.699 495.426 268.699 495.426ZM246.492 421.246C246.492 421.246 257.992 405.328 266.043 404.652 274.094 403.98 291.73 408.156 289.355 423.609 287.711 434.32 293.387 435.695 295.277 442.477 296.836 448.059 302.77 471.742 271.32 480.828 271.32 480.828 276.93 451.082 245.891 423.492ZM276.137 498.422 278.566 505.633C271.008 506.109 268.918 501.285 268.918 501.285ZM497.234 561.773C449.625 573.023 402.422 569.52 363.059 561.352L355.965 562.227 356.23 559.871C301.766 547.562 263.922 527.062 263.922 527.062 263.922 527.062 302.094 535.035 355.617 534.891L389.77 491.965 363.613 495.184 364.18 490.207 359.242 490.816 361.629 469.91 424.141 462.211 423.574 467.188 428.512 466.578 426.125 487.484 393.598 532.07 416.492 529.25 416.281 531.086C419.484 530.68 422.703 530.238 425.941 529.758 424.801 523.938 424.707 516.195 425.879 505.941 430.578 464.734 447.48 458.742 467.953 456.223 480.156 454.719 490.441 454.777 496.039 463.074 503.188 467.793 506.672 478.59 504.09 501.219 503.691 504.691 503.203 507.902 502.633 510.891 503.922 510.531 505.223 510.199 506.523 509.867L513.215 451.238 537.098 448.297 539.352 452.926 541.465 452.664 557.863 486.359 562.562 445.16 580.387 442.965C574.992 442.316 569.465 441.594 563.809 440.781L556.539 441.68 556.176 439.652C548.898 438.543 541.434 437.309 533.727 435.918 530.363 435.312 527.023 434.695 523.699 434.082 517.758 442.824 509.418 447.484 498.535 448.824L456.738 453.973 457.309 448.992 452.371 449.602 455.66 420.773C451.477 419.926 447.316 419.078 443.184 418.242L450.523 454.738 426.273 457.723 425.145 452.957 421.906 453.355 419.551 443.391 398.781 445.949 391.91 461.957 367.66 464.941 369.809 459.773 363.293 460.574 385.625 406.789C372.852 404.355 360.223 402.055 347.676 399.949 346.371 414.07 345.426 424.035 345.426 424.035 353.488 433.859 343.395 447.535 343.395 447.535 345.164 440.145 340.426 415.559 331.656 409.547 321.594 402.641 318.77 397.875 318.77 397.875 318.629 397.074 318.473 396.238 318.305 395.383 317.43 395.258 316.551 395.141 315.676 395.016 317.422 399.441 319.074 403.789 326.457 408.395 337.562 415.32 340.297 434.93 340.297 434.93 345.578 448.59 337.215 455.297 337.215 455.297 337.215 455.297 342.867 462.723 337.184 478.133 329.684 509.23 300.492 513.461 300.492 513.461 296.289 498.777 299.703 481.77 299.703 481.77 292.703 489.359 269.211 499.207 269.211 499.207 272.406 494.383 272.961 482.586 272.961 482.586 317.582 464.152 291.301 435.043 290.996 429.152 290.688 423.266 295.953 409.652 275.859 403.656 255.762 397.656 244.543 421.449 244.543 421.449L239.559 417.777C236.727 407.477 239.766 389.414 239.766 389.414 240.789 388.773 242.156 388.375 243.637 388.137 241.805 388.055 239.973 387.973 238.137 387.902L234.582 412.969 219.312 402.121 230.398 389.379 231.219 387.684C229.602 387.641 227.984 387.609 226.367 387.574L226.305 387.703 215.031 399.531C210.25 397.805 202.852 397.688 202.852 397.688 205.91 391.207 216.594 389.68 216.594 389.68L217.676 387.469C216.73 387.465 215.785 387.449 214.836 387.449L213.781 389.574C205.598 389.117 200.812 397.137 200.812 397.137L185.395 398.383C185.395 398.383 184.785 394.371 183.922 388.227 174.457 388.711 164.879 389.441 155.18 390.414 155.781 393.645 156.438 396.852 157.145 400.039 164.512 402.273 175.938 404.691 182.312 400.801 182.312 400.801 211.711 398.32 217.32 405.078 217.32 405.078 191.73 413.59 196.914 449.52 201.387 472.82 218.219 481.738 218.219 481.738 218.219 481.738 210.543 490.926 199.32 499.023 226.535 539.902 263.695 573.586 307.352 596.621H427.785L341.957 612.117C373.895 623.988 408.445 630.488 444.516 630.488 513.176 630.488 576.344 606.98 626.41 567.574 591.305 556.359 546.703 550.082 497.234 561.773" fill="#65cbca"/>
<path d="M159.016 407.996C159.227 408.828 159.43 409.656 159.645 410.484 196.383 420.766 189.922 462.254 186.223 477.395 186.621 478.125 187.035 478.848 187.441 479.574 191.477 463.965 199.523 418.297 159.016 407.996" fill="#65cbca"/>
<path d="M660.898 447.285 659.527 459.324 626.992 463.336C620.656 464.113 620.258 467.598 619.887 470.844L619.828 471.352 647.543 469.043 647 473.82 651.914 473.41 649.703 492.758 616.801 497.875 616.199 503.16C616.152 503.59 616.129 503.984 616.121 504.352 616.953 504.328 617.824 504.215 618.672 504.109L649.988 500.254 649.422 505.23 654.359 504.621 653.168 515.039C660.379 516.785 667.316 518.645 673.934 520.539 687.762 503.355 699.707 484.594 709.441 464.555 713.102 457.016 716.441 449.289 719.457 441.41 703.598 444.473 684.227 446.746 660.898 447.285" fill="#65cbca"/>
<path d="M266.566 287.723C269.211 280.348 274.117 275.109 274.117 275.109L280.461 246.395 277.289 248.988 271.766 274.914C267.57 277.504 263.57 289.102 263.57 289.102L255.699 305.348 214.836 387.449C215.785 387.449 216.73 387.465 217.676 387.469L266.566 287.723" fill="#698937"/>
<path d="M291.426 303.734C291.426 303.734 291.426 294.992 291.453 292.816 291.543 286.141 286.645 277.672 286.645 277.672L295.902 243.289 292.312 241.73 283.734 278.355C287.168 281.031 288.52 296.652 288.52 296.652L288.41 302.484C293.105 317.52 310.59 382.59 310.59 382.59L305.031 379.824C296.859 374.562 291.621 374.469 286.207 377.23 280.969 379.898 277.68 383.613 277.68 383.613 280.77 371.332 287.223 362.797 287.223 362.797 279.434 334.906 278.719 289.684 278.719 289.684L274.926 289.973 226.367 387.574C227.984 387.609 229.602 387.641 231.219 387.684L275.934 294.973C271.91 322.086 283.426 362.129 283.426 362.129 278.395 365.363 273.715 383.559 273.715 383.559 268.734 387.062 260.469 379.984 260.469 379.984L254.395 384.691C249.863 383.664 238.277 386.906 238.277 386.906L238.137 387.902C239.973 387.973 241.805 388.055 243.637 388.137 248.488 387.355 254.633 388.32 254.633 388.32L258.023 385.297C258.023 385.297 270.031 391.738 281.348 383.273 292.66 374.812 307.223 381.355 312.219 388.234 313.891 390.543 314.793 392.789 315.676 395.016 316.551 395.141 317.43 395.258 318.305 395.383 312.445 365.391 291.426 303.734 291.426 303.734" fill="#698937"/>
<path d="M507.445 312.273 505.441 300.176 500.062 313.18ZM507.445 312.273" fill="#698937"/>
<path d="M592.703 274.219 579.664 275.824 578.203 288.629 586.305 287.633C592.52 286.867 593.242 283.695 593.957 277.449 594.098 276.211 594.152 275.105 594.094 274.141 593.664 274.137 593.211 274.156 592.703 274.219" fill="#698937"/>
<path d="M669.508 292.309 667.508 280.215 662.125 293.219ZM669.508 292.309" fill="#698937"/>
<path d="M503.883 380.879 488.164 382.816 483.203 426.301C483.285 426.316 483.363 426.336 483.445 426.352L493.977 425.051C500.922 424.195 503.926 416.836 505.859 399.895 506.98 390.074 506.957 384.223 506.074 380.809 505.398 380.746 504.664 380.785 503.883 380.879" fill="#698937"/>
<path d="M637.289 432.09C631.414 432.988 621.184 433.438 617.16 426.09 613.105 423.816 610.324 419.348 611.281 410.957L616.777 362.777C618.848 344.664 633.16 340.621 641.777 339.562 641.777 339.562 667.367 336.41 681.402 336.574L680.898 341C682.621 340.949 684.266 340.926 685.77 340.941L683.535 360.527 651 364.535C644.664 365.316 644.266 368.801 643.898 372.047L643.84 372.555 671.555 370.246 671.008 375.023 675.922 374.613 673.715 393.961 640.812 399.078 640.207 404.363C640.16 404.797 640.137 405.188 640.129 405.555 640.961 405.527 641.836 405.418 642.684 405.312L674 401.457 673.43 406.434 678.367 405.824 676.148 425.289C663.406 428.516 637.289 432.09 637.289 432.09ZM590.535 341.652 589.273 336.898 586.168 337.281 579.328 311.582 575.516 311.164 571.77 343.965 548.129 346.875 548.699 341.898 543.762 342.508 553.797 254.559 593.645 249.648C603.414 248.445 611.234 249.879 615.211 256.277 620.715 259.66 623.488 266.609 622.086 278.895 619.703 299.797 612.398 303.777 605.91 306.945L617.465 338.336ZM517.789 350.613 516.66 345.844 513.422 346.242 511.062 336.277 490.297 338.836 483.426 354.848 459.176 357.832 461.324 352.66 454.809 353.465 492.746 262.078 520.652 258.641 521.613 263.43 525.02 263.012 542.035 347.625ZM426.645 361.84 424.523 357.191 422.273 357.473 410.074 330.711 407.57 331.02 403.73 364.66 381.191 367.438 381.758 362.461 376.82 363.066 386.855 275.121 409.277 272.359 408.707 277.336 413.645 276.73 410.277 306.238 432.309 269.523 459.48 266.176 456.156 271.492 463.852 270.547 434.312 317.777 453.816 358.492ZM706.906 423.156 683.145 426.086 683.711 421.109 678.773 421.715 688.809 333.77 712.691 330.824 714.945 335.453 717.062 335.195 733.457 368.891 738.121 328.023 734.297 319.941 733.832 324 710.195 326.91 710.766 321.938 705.828 322.543 711.594 271.996 699.734 246.945 689.242 253.758 704.105 327.664 679.855 330.648 678.727 325.883 675.484 326.281 673.129 316.316 652.363 318.871 645.492 334.883 621.242 337.867 623.387 332.695 616.871 333.5 644.621 266.672 581.562 211.223 534.652 249.262 485.957 205.578 461.227 183.395C458.848 185.961 457.004 188.113 455.996 189.73 452.656 195.098 447.824 197.879 443.047 201.547 438.273 205.215 422.5 220.492 412.66 234.309 402.816 248.125 380.672 258.008 379.82 257.922 378.965 257.84 374.266 252.082 371.539 244.438 368.652 236.344 362.68 222.559 363.438 218.102 364.203 213.645 364.164 212.582 365.008 209.453 365.008 209.453 370.684 205.66 376.523 199.656 382.371 193.656 398.824 180.16 417.879 175.969 425.145 174.875 431.988 167.297 436.07 160.828L404.996 132.953 347.227 211.125C357.438 207.258 357.902 206.777 359.688 204.703 362.441 201.512 368.914 205.477 368.914 205.477 361.676 207.465 361.402 214.566 360.879 218.141 360.355 221.715 370.434 248.945 373.84 255.77 377.25 262.586 383.305 260.395 383.305 260.395 383.305 260.395 377.812 264.016 375.078 265.242 364.867 269.836 355.332 300.191 355.078 309.477 354.73 322.016 350.418 370.211 347.676 399.949 360.223 402.055 372.852 404.355 385.625 406.789L401.234 369.191 429.141 365.754 430.102 370.539 433.508 370.121 443.184 418.242C447.316 419.078 451.477 419.926 455.66 420.773L462.402 361.652 504.199 356.508C514.844 355.195 521.562 358.066 525.508 363.805 534.555 369.945 535.82 384.227 533.855 401.477 532.223 415.781 528.863 426.477 523.699 434.082 527.023 434.695 530.363 435.312 533.727 435.918 541.434 437.309 548.898 438.543 556.176 439.652L555.68 436.879 552.172 437.309 536.98 352.469 561.84 349.406 562.508 354.234 566.207 353.777 572.551 399.555 592.547 345.625 617.406 342.562 615.328 347.727 621.773 346.934 585.055 438.164 563.809 440.781C569.465 441.594 574.992 442.316 580.387 442.965L586.203 442.246 586.047 443.617C591.094 444.184 596.023 444.676 600.84 445.105 606.125 440.535 612.863 438.965 617.766 438.359 617.766 438.359 643.355 435.207 657.391 435.375L656.887 439.797C658.609 439.746 660.254 439.727 661.758 439.742L660.898 447.285C684.227 446.746 703.598 444.473 719.457 441.41 722.703 432.941 725.574 424.289 728.039 415.465L711.5 382.887 706.906 423.156" fill="#698937"/>
<path d="M414.789 412.504 413.926 407.289 412 411.945C412.93 412.133 413.859 412.32 414.789 412.504" fill="#698937"/>
<path d="M178.152 328.977C178.176 328.535 178.176 328.094 178.164 327.645L164.547 311.758 150.496 322.355C150.285 326.926 150.164 331.52 150.164 336.141 150.164 354.688 151.898 372.824 155.18 390.414 164.879 389.441 174.457 388.711 183.922 388.227 181.633 371.945 177.543 340.656 178.152 328.977" fill="#698937"/>
<path d="M351.594 557.855 353.98 536.949 355.617 534.891C302.094 535.035 263.922 527.062 263.922 527.062 263.922 527.062 301.766 547.562 356.23 559.871L356.531 557.246 351.594 557.855" fill="#3f9f99"/>
<path d="M460.184 524.344C464.086 523.859 466.988 522.91 469.211 520.945 464.312 522.234 459.418 523.414 454.539 524.488 456.059 524.688 457.918 524.621 460.184 524.344" fill="#3f9f99"/>
<path d="M652.137 524.086C639.395 527.312 613.277 530.887 613.277 530.887 607.402 531.785 597.172 532.234 593.148 524.887 589.094 522.617 586.312 518.148 587.273 509.758L587.895 504.289C586.605 504.188 585.316 504.102 584.023 504.016L580.539 534.562 556.898 537.477 554.555 532.855 552.531 533.105 538 504.484C537.133 504.566 536.27 504.652 535.402 504.746L531.309 540.629 507.547 543.555 508.117 538.574 503.18 539.184 506.523 509.867C505.223 510.199 503.922 510.531 502.633 510.891 496.82 541.215 482.133 547.156 462.164 549.617 449.383 551.191 439.113 551.156 433.672 542.941 429.918 540.504 427.246 536.387 425.941 529.758 422.703 530.238 419.484 530.68 416.281 531.086L415.926 534.227 420.859 533.617 418.477 554.523 363.059 561.352C402.422 569.52 449.625 573.023 497.234 561.773 546.703 550.082 591.305 556.359 626.41 567.574 643.977 553.75 659.918 537.953 673.934 520.539 667.316 518.645 660.379 516.785 653.168 515.039L652.137 524.086" fill="#3f9f99"/>
<path d="M403.203 326.648 399.363 360.289 381.758 362.461 381.191 367.438 403.73 364.66 407.57 331.02 410.074 330.711 407.957 326.066 403.203 326.648" fill="#474748"/>
<path d="M434.312 317.777 463.852 270.547 456.156 271.492 429.941 313.406 449.445 354.121 424.523 357.191 426.645 361.84 453.816 358.492 434.312 317.777" fill="#474748"/>
<path d="M410.203 306.363 410.277 306.238 413.645 276.73 408.707 277.336 405.328 306.965 410.203 306.363" fill="#474748"/>
<path d="M505.441 300.176 503.672 289.52 493.555 313.984 500.062 313.18 505.441 300.176" fill="#474748"/>
<path d="M521.613 263.43 537.668 343.258 516.66 345.844 517.789 350.613 542.035 347.625 525.02 263.012 521.613 263.43" fill="#474748"/>
<path d="M485.93 334.469 479.055 350.477 461.324 352.66 459.176 357.832 483.426 354.848 490.297 338.836 511.062 336.277 509.934 331.512 485.93 334.469" fill="#474748"/>
<path d="M579.664 275.824 592.703 274.219C593.211 274.156 593.664 274.137 594.094 274.141 593.902 270.977 592.441 269.344 588.336 269.852L575.297 271.457 573.27 289.238 578.203 288.629 579.664 275.824" fill="#474748"/>
<path d="M571.145 306.797 567.402 339.594 548.699 341.898 548.129 346.875 571.77 343.965 575.516 311.164 579.328 311.582 578.266 307.574 571.145 306.797" fill="#474748"/>
<path d="M622.086 278.895C623.488 266.609 620.715 259.66 615.211 256.277 617.684 260.254 618.676 266.145 617.719 274.523 615.332 295.43 608.031 299.41 601.543 302.574L613.098 333.965 589.273 336.898 590.535 341.652 617.465 338.336 605.91 306.945C612.398 303.777 619.703 299.797 622.086 278.895" fill="#474748"/>
<path d="M667.508 280.215 665.742 269.559 655.617 294.02 662.125 293.219 667.508 280.215" fill="#474748"/>
<path d="M699.734 323.293 678.727 325.883 679.855 330.648 704.105 327.664 689.242 253.758 687.086 243.047 683.68 243.469 699.734 323.293" fill="#474748"/>
<path d="M647.992 314.504 641.121 330.516 623.387 332.695 621.242 337.867 645.492 334.883 652.363 318.871 673.129 316.316 672 311.547 647.992 314.504" fill="#474748"/>
<path d="M779.875 254.785C776.656 283.02 760.066 287.316 748.949 287.855 744.117 288.094 733.707 287.719 733.141 287.434L729.465 319.633 710.766 321.938 710.195 326.91 733.832 324 734.297 319.941 736.613 299.645 737.508 291.801C738.078 292.086 748.488 292.465 753.32 292.223 764.434 291.684 781.023 287.391 784.246 259.152 785.742 246.016 782.535 239.359 777.375 236.195 779.77 240.082 780.879 245.977 779.875 254.785" fill="#474748"/>
<path d="M741.609 255.879 755.258 254.195C755.57 254.156 755.863 254.141 756.148 254.141 755.773 250.879 754.07 249.438 750.887 249.828L737.238 251.508 735.113 270.133 740.051 269.523 741.609 255.879" fill="#474748"/>
<path d="M816.891 309.457C808.602 310.477 799.707 311.809 793.457 307.883 799.297 316.906 810.762 315.117 821.262 313.824 836.004 312.008 856.137 309.293 860.562 270.484L866.215 220.984 861.277 221.594 856.195 266.113C851.77 304.922 831.633 307.641 816.891 309.457" fill="#474748"/>
<path d="M813.656 288.43C812.891 285.504 813.312 281.324 813.895 276.234L819.539 226.734 814.605 227.34 809.523 271.863C808.496 280.875 807.953 287.031 813.656 288.43" fill="#474748"/>
<path d="M863.203 303.156 862.637 308.137 925.148 300.438 927.531 279.531 922.594 280.141 920.777 296.066 863.203 303.156" fill="#474748"/>
<path d="M870.852 236.117 870.285 241.094 896.441 237.871 900.766 232.434 870.852 236.117" fill="#474748"/>
<path d="M891.969 279.004 900.27 277.984 932.797 233.395 935.184 212.488 930.246 213.098 928.43 229.023 891.969 279.004" fill="#474748"/>
<path d="M977.867 289.035 977.301 294.012 1000.941 291.102 1010.98 203.152 1006.039 203.762 996.57 286.73 977.867 289.035" fill="#474748"/>
<path d="M955.875 260.117 952.215 292.195 933.512 294.5 932.945 299.477 956.582 296.562 960.246 264.484 976.023 262.539 976.59 257.566 955.875 260.117" fill="#474748"/>
<path d="M963.199 238.602 966.617 208.617 961.684 209.223 958.262 239.211 963.199 238.602" fill="#474748"/>
<path d="M1034.762 266.863 1027.891 282.871 1010.148 285.059 1008.012 290.23 1032.262 287.242 1039.129 271.234 1059.891 268.676 1058.77 263.91 1034.762 266.863" fill="#474748"/>
<path d="M1065.488 278.242 1066.621 283.008 1090.871 280.023 1073.852 195.406 1070.441 195.828 1086.5 275.652 1065.488 278.242" fill="#474748"/>
<path d="M1042.379 246.379 1048.891 245.578 1054.27 232.574 1052.5 221.918 1042.379 246.379" fill="#474748"/>
<path d="M394.414 441.578 387.543 457.59 369.809 459.773 367.66 464.941 391.91 461.957 398.781 445.949 419.551 443.391 418.422 438.621 394.414 441.578" fill="#474748"/>
<path d="M412 411.945 413.926 407.289 412.16 396.633 402.039 421.094 408.547 420.293 412 411.945" fill="#474748"/>
<path d="M433.508 370.121 430.102 370.539 446.156 450.367 425.145 452.957 426.273 457.723 450.523 454.738 443.184 418.242 433.508 370.121" fill="#474748"/>
<path d="M483.203 426.301 488.164 382.816 503.883 380.879C504.664 380.785 505.398 380.746 506.074 380.809 505 376.664 502.656 376.125 499.516 376.512L483.797 378.445 478.258 426.988 483.195 426.379 483.203 426.301" fill="#474748"/>
<path d="M533.855 401.477C535.82 384.227 534.555 369.945 525.508 363.805 530.555 371.137 531.078 383.152 529.484 397.105 525.973 427.863 514.516 441.949 494.164 444.453L457.309 448.992 456.738 453.973 498.535 448.824C509.418 447.484 517.758 442.824 523.699 434.082 528.863 426.477 532.223 415.781 533.855 401.477" fill="#474748"/>
<path d="M572.551 399.555 566.207 353.777 562.508 354.234 569.812 406.945 572.551 399.555" fill="#474748"/>
<path d="M621.773 346.934 615.328 347.727 580.684 433.797 555.68 436.879 556.176 439.652 556.539 441.68 563.809 440.781 585.055 438.164 621.773 346.934" fill="#474748"/>
<path d="M676.148 425.289 678.367 405.824 673.43 406.434 671.781 420.922C659.035 424.148 632.918 427.719 632.918 427.719 628.621 428.379 621.988 428.793 617.16 426.09 621.184 433.438 631.414 432.988 637.289 432.09 637.289 432.09 663.406 428.516 676.148 425.289" fill="#474748"/>
<path d="M646.633 360.168C640.297 360.949 639.898 364.434 639.531 367.676L638.926 372.965 643.84 372.555 643.898 372.047C644.266 368.801 644.664 365.316 651 364.535L683.535 360.527 685.77 340.941C684.266 340.926 682.621 340.949 680.898 341L679.168 356.16 646.633 360.168" fill="#474748"/>
<path d="M636.445 394.711 635.84 399.996C635.289 404.836 637.488 405.641 640.129 405.555 640.137 405.188 640.16 404.797 640.207 404.363L640.812 399.078 673.715 393.961 675.922 374.613 671.008 375.023 669.348 389.59 636.445 394.711" fill="#474748"/>
<path d="M751.766 412.727 730.152 415.387 732.496 420.004 756.137 417.094 766.168 329.145 761.23 329.754 751.766 412.727" fill="#474748"/>
<path d="M706.906 423.156 711.5 382.887 707.527 375.055 702.535 418.789 683.711 421.109 683.145 426.086 706.906 423.156" fill="#474748"/>
<path d="M714.945 335.453 733.031 372.625 733.457 368.891 717.062 335.195 714.945 335.453" fill="#474748"/>
<path d="M770.809 344.277 770.238 349.258 787.727 347.105 788.293 342.129 770.809 344.277" fill="#474748"/>
<path d="M841.84 319.824 836.902 320.434 835.086 336.363 811.934 339.215 804.285 406.258 785.582 408.559 785.012 413.535 808.652 410.625 816.301 343.582 839.453 340.734 841.84 319.824" fill="#474748"/>
<path d="M867.391 377.652C866.625 374.727 867.047 370.547 867.629 365.453L873.277 315.953 868.34 316.562 863.262 361.086C862.234 370.098 861.691 376.254 867.391 377.652" fill="#474748"/>
<path d="M915.012 310.812 909.93 355.336C905.504 394.145 885.371 396.859 870.625 398.68 862.34 399.699 853.445 401.031 847.191 397.105 853.031 406.129 864.5 404.34 874.996 403.047 889.738 401.23 909.875 398.512 914.301 359.703L919.949 310.203 915.012 310.812" fill="#474748"/>
<path d="M950.828 325.945 963.871 324.34C964.375 324.277 964.832 324.258 965.258 324.262 965.066 321.098 963.605 319.465 959.5 319.973L946.461 321.578 944.43 339.359 949.367 338.75 950.828 325.945" fill="#474748"/>
<path d="M993.254 329.016C994.652 316.73 991.883 309.781 986.375 306.398 988.848 310.375 989.84 316.262 988.883 324.645 986.496 345.551 979.195 349.527 972.703 352.699L984.262 384.09 960.438 387.023 961.703 391.773 988.633 388.457 977.074 357.066C983.562 353.898 990.863 349.918 993.254 329.016" fill="#474748"/>
<path d="M942.309 356.918 938.566 389.715 919.863 392.02 919.297 396.996 942.938 394.086 946.676 361.285 950.496 361.703 949.43 357.695 942.309 356.918" fill="#474748"/>
<path d="M1027.422 313.266C1021.09 314.043 1020.691 317.527 1020.32 320.773L1019.719 326.059 1024.629 325.648 1024.691 325.141C1025.059 321.895 1025.449 318.41 1031.789 317.633L1064.328 313.625 1066.559 294.039C1065.059 294.023 1063.41 294.047 1061.691 294.094L1059.961 309.258 1027.422 313.266" fill="#474748"/>
<path d="M1017.238 347.805 1016.629 353.094C1016.078 357.934 1018.281 358.734 1020.922 358.652 1020.93 358.281 1020.949 357.891 1021 357.461L1021.602 352.176 1054.512 347.055 1056.711 327.711 1051.801 328.117 1050.141 342.688 1017.238 347.805" fill="#474748"/>
<path d="M1052.57 374.016C1039.828 377.242 1013.711 380.816 1013.711 380.816 1009.41 381.477 1002.781 381.887 997.949 379.184 1001.969 386.535 1012.199 386.086 1018.078 385.184 1018.078 385.184 1044.191 381.609 1056.941 378.383L1059.16 358.922 1054.219 359.527 1052.57 374.016" fill="#474748"/>
<path d="M364.18 490.207 363.613 495.184 389.77 491.965 394.094 486.523 364.18 490.207" fill="#474748"/>
<path d="M385.297 533.094 393.598 532.07 426.125 487.484 428.512 466.578 423.574 467.188 421.758 483.113 385.297 533.094" fill="#474748"/>
<path d="M356.531 557.246 356.23 559.871 355.965 562.227 363.059 561.352 418.477 554.523 420.859 533.617 415.926 534.227 414.105 550.156 356.531 557.246" fill="#474748"/>
<path d="M453.531 524.305C452.602 520.941 452.957 515.547 453.887 507.398 456.34 485.895 459.215 482.816 469.938 481.492 472.57 481.172 474.668 481.129 476.32 481.52 475.031 477.145 471.754 476.363 465.566 477.125 454.848 478.445 451.973 481.527 449.52 503.031 447.91 517.117 448.02 522.988 453.531 524.305" fill="#474748"/>
<path d="M496.039 463.074C500.105 469.109 501.699 479.492 499.723 496.848 495.293 535.656 479.73 542.547 457.797 545.25 447.879 546.473 439.484 546.719 433.672 542.941 439.113 551.156 449.383 551.191 462.164 549.617 482.133 547.156 496.82 541.215 502.633 510.891 503.203 507.902 503.691 504.691 504.09 501.219 506.672 478.59 503.188 467.793 496.039 463.074" fill="#474748"/>
<path d="M585.637 447.223 576.168 530.195 554.555 532.855 556.898 537.477 580.539 534.562 584.023 504.016 590.574 446.617 585.637 447.223" fill="#474748"/>
<path d="M557.863 486.359 541.465 452.664 539.352 452.926 557.438 490.094 557.863 486.359" fill="#474748"/>
<path d="M531.93 492.523 526.941 536.258 508.117 538.574 507.547 543.555 531.309 540.629 535.402 504.746 535.902 500.355 531.93 492.523" fill="#474748"/>
<path d="M612.434 493.508 611.832 498.793C611.277 503.637 613.48 504.438 616.121 504.352 616.129 503.984 616.152 503.59 616.199 503.16L616.801 497.875 649.703 492.758 651.914 473.41 647 473.82 645.336 488.387 612.434 493.508" fill="#474748"/>
<path d="M656.887 439.797 655.156 454.957 622.621 458.965C616.285 459.746 615.891 463.23 615.52 466.477L614.914 471.762 619.828 471.352 619.887 470.844C620.258 467.598 620.656 464.113 626.992 463.336L659.527 459.324 660.898 447.285 661.758 439.742C660.254 439.727 658.609 439.746 656.887 439.797" fill="#474748"/>
<path d="M647.77 519.719C635.023 522.945 608.906 526.52 608.906 526.52 604.609 527.176 597.977 527.59 593.148 524.887 597.172 532.234 607.402 531.785 613.277 530.887 613.277 530.887 639.395 527.312 652.137 524.086L653.168 515.039 654.359 504.621 649.422 505.23 647.77 519.719" fill="#474748"/>
<path d="M340.859 95.484C336.883 102.941 330.008 117.922 321.133 121.648L313.906 119.266C313.906 119.266 314.945 102.113 319.125 87.812 326.656 89.035 334.219 90.094 341.809 90.996 341.98 92.316 341.75 93.812 340.859 95.484ZM295.531 83.453C300.988 84.594 306.469 85.641 311.965 86.609 309.277 99.723 307.195 122.27 307.195 122.27 307.195 122.27 309.887 125.965 308.66 129L319.258 131.859 320.629 126.762C320.629 126.762 343.309 121.285 347.629 94.691 347.727 93.645 347.676 92.633 347.512 91.656 375.688 94.715 404.215 95.59 432.875 94.266 439.887 93.941 446.914 93.484 453.938 92.895 460.777 92.32 467.621 91.609 474.473 90.785 476.848 90.5 479.227 90.195 481.605 89.883 481.492 89.945 481.379 90.02 481.266 90.086 481.266 90.086 506.82 116.535 516.449 123.387 516.449 123.387 530.656 107.832 536.914 92.18 536.914 92.18 554.434 88.188 555.883 63.613 555.945 62.547 555.988 61.453 555.988 60.305 556.105 50.133 572.469 52.723 574.406 45.523 576.246 38.691 570.977 37.676 570.977 37.676 570.977 37.676 576.789 33.809 575.156 29.758 573.387 25.391 564.395 28.031 564.395 28.031 564.395 28.031 566.137 20.227 561.348 18.941 557.836 17.992 548.18 21.777 545.797 37.703 545.676 38.445 545.574 39.227 545.504 40.027 545.504 40.027 535.898 33.359 533.145 44.133 533.129 44.152 533.109 44.176 533.102 44.195 533.055 44.273 532.973 44.383 532.852 44.531 532.809 44.602 532.758 44.656 532.715 44.715 530.492 47.562 526.859 49.512 522.652 50.844 522.73 49.172 522.844 36.477 509.355 36.52 503.508 38.824 503.418 43.066 504.289 47.871 504.613 49.68 505.078 51.566 505.422 53.461 505.957 56.359 506.211 59.277 505.273 61.945 504.457 64.285 503.094 66.945 501.363 69.68 499.215 73.082 496.488 76.617 493.504 79.859 485.66 81.074 477.93 82.113 470.324 82.98 422.562 88.43 379.641 87.273 342.973 82.984 340.652 80.391 338.344 78.852 338.344 78.852L336.676 82.211C331.586 81.555 326.629 80.836 321.797 80.074 321.977 77.68 327.344 78.297 327.344 78.297L325.883 71.562C325.883 71.562 317.883 70.898 314.191 78.816 308.445 77.816 302.887 76.758 297.547 75.648 262.758 68.426 233.52 58.633 210.949 49.48 204.121 46.715 197.91 44.008 192.336 41.449 188.219 39.555 184.449 37.746 181.047 36.051 166.406 28.762 158.477 23.625 158.277 23.492L153.855 30.219C154.164 30.422 172.457 42.297 205.125 55.785 228.398 65.398 258.961 75.832 295.531 83.453" fill="#474748"/>
<path d="M417.879 175.969C398.824 180.16 382.371 193.656 376.523 199.656 370.684 205.66 365.008 209.453 365.008 209.453 364.164 212.582 364.203 213.645 363.438 218.102 362.68 222.559 368.652 236.344 371.539 244.438 374.266 252.082 378.965 257.84 379.82 257.922 380.672 258.008 402.816 248.125 412.66 234.309 422.5 220.492 438.273 205.215 443.047 201.547 447.824 197.879 452.656 195.098 455.996 189.73 457.004 188.113 458.848 185.961 461.227 183.395 466.742 177.438 475.164 169.23 482.914 160.113 485.395 157.199 488.145 153.711 490.922 150.051 500.578 137.309 510.578 122.465 510.578 122.465L495.062 107.91C492.094 110.418 488.504 113.262 484.574 116.336 467.75 129.484 444.562 146.895 436.105 160.766 436.094 160.785 436.082 160.809 436.07 160.828 431.988 167.297 425.145 174.875 417.879 175.969" fill="#474748"/>
<path transform="matrix(1,0,0,-1,0,0)" stroke-width=".75" stroke-linecap="round" stroke-linejoin="round" fill="none" stroke="#474748" d="M532.852-44.531C532.973-44.383 533.055-44.273 533.102-44.195"/>
<path d="M355.078 309.477C355.332 300.191 364.867 269.836 375.078 265.242 377.812 264.016 383.305 260.395 383.305 260.395 383.305 260.395 377.25 262.586 373.84 255.77 370.434 248.945 360.355 221.715 360.879 218.141 361.402 214.566 361.676 207.465 368.914 205.477 368.914 205.477 362.441 201.512 359.688 204.703 357.902 206.777 357.438 207.258 347.227 211.125 341.691 213.223 333.309 216.312 320.273 221.191 315.848 222.852 299.359 230.461 299.359 230.461L295.902 243.289 286.645 277.672C286.645 277.672 291.543 286.141 291.453 292.816 291.426 294.992 291.426 303.734 291.426 303.734 291.426 303.734 312.445 365.391 318.305 395.383 318.473 396.238 318.629 397.074 318.77 397.875 318.77 397.875 321.594 402.641 331.656 409.547 340.426 415.559 345.164 440.145 343.395 447.535 343.395 447.535 353.488 433.859 345.426 424.035 345.426 424.035 346.371 414.07 347.676 399.949 350.418 370.211 354.73 322.016 355.078 309.477" fill="#474748"/>
<path d="M265.816 496.398C265.934 478.652 264.516 469.375 260.621 458.059 256.539 446.176 238.809 418.98 219.629 406.285 219.629 406.285 190.547 414.121 201.496 457.875 210.113 480.926 230.281 473.758 228.242 507.406 226.547 525.605 242.098 526.297 253.125 524.312 264.152 522.324 274.094 521.941 265.816 496.398" fill="#474748"/>
<path d="M268.699 495.426C268.699 495.426 280.551 449 233.051 414.344 233.051 414.344 268.359 440.688 268.699 495.426" fill="#474748"/>
<path d="M271.32 480.828C302.77 471.742 296.836 448.059 295.277 442.477 293.387 435.695 287.711 434.32 289.355 423.609 291.73 408.156 274.094 403.98 266.043 404.652 257.992 405.328 246.492 421.246 246.492 421.246L245.891 423.492C276.93 451.082 271.32 480.828 271.32 480.828" fill="#474748"/>
<path d="M281.348 383.273C270.031 391.738 258.023 385.297 258.023 385.297L254.633 388.32C254.633 388.32 248.488 387.355 243.637 388.137 242.156 388.375 240.789 388.773 239.766 389.414 239.766 389.414 236.727 407.477 239.559 417.777L244.543 421.449C244.543 421.449 255.762 397.656 275.859 403.656 295.953 409.652 290.688 423.266 290.996 429.152 291.301 435.043 317.582 464.152 272.961 482.586 272.961 482.586 272.406 494.383 269.211 499.207 269.211 499.207 292.703 489.359 299.703 481.77 299.703 481.77 296.289 498.777 300.492 513.461 300.492 513.461 329.684 509.23 337.184 478.133 342.867 462.723 337.215 455.297 337.215 455.297 337.215 455.297 345.578 448.59 340.297 434.93 340.297 434.93 337.562 415.32 326.457 408.395 319.074 403.789 317.422 399.441 315.676 395.016 314.793 392.789 313.891 390.543 312.219 388.234 307.223 381.355 292.66 374.812 281.348 383.273" fill="#474748"/>
<path d="M218.219 481.738C218.219 481.738 201.387 472.82 196.914 449.52 191.73 413.59 217.32 405.078 217.32 405.078 211.711 398.32 182.312 400.801 182.312 400.801 175.938 404.691 164.512 402.273 157.145 400.039 153.027 398.793 150.168 397.602 150.168 397.602L144.848 406.012C150.129 406.246 154.832 406.934 159.016 407.996 199.523 418.297 191.477 463.965 187.441 479.574 186.59 482.867 185.914 484.828 185.914 484.828 175.73 484.492 157.832 472.238 157.832 472.238 149.887 483.867 131.727 483.133 131.727 483.133 131.727 483.133 136.871 507.031 163.836 510.797 176.535 512.57 189.332 506.227 199.32 499.023 210.543 490.926 218.219 481.738 218.219 481.738" fill="#474748"/>
<path d="M159.645 410.484C154.469 409.035 148.449 408.195 141.43 408.148 141.43 408.148 132.117 407.828 127.52 424.074L112.023 428.863C112.023 428.863 119.336 440.672 120.449 447.09 121.562 453.508 122.031 461.504 125.824 466.898 129.617 472.293 128.531 481.18 128.531 481.18 128.531 481.18 148.914 480.984 157.617 469.773 157.617 469.773 170.684 480.512 184.668 482.965 184.668 482.965 185.371 480.871 186.223 477.395 189.922 462.254 196.383 420.766 159.645 410.484" fill="#474748"/>
<path d="M123.441 485.492C134.711 467.367 105.352 443.898 96.211 434.004 87.074 424.109 85.328 398.941 73.422 380.652 61.52 362.359 50.586 362.113 42.531 366.418 25.648 375.434 21.738 427.703 55.582 446.887 73.219 456.883 72.383 460.812 80.852 476.426 90.855 494.867 112.262 503.469 123.441 485.492" fill="#474748"/>
<path d="M78.234 386.32C78.234 386.32 87.406 406.922 89.602 415.938 91.938 425.527 98.98 433.875 107.109 440.219 115.238 446.559 119.293 457.055 119.293 457.055L119.68 455.621C119.68 455.621 118.836 445.777 109.391 427.273 109.391 427.273 82.262 395.18 79.16 385.598L78.234 386.32" fill="#474748"/>
<path d="M278.566 505.633 276.137 498.422 268.918 501.285C268.918 501.285 271.008 506.109 278.566 505.633" fill="#474748"/>
<path d="M178.164 327.645C178.176 328.094 178.176 328.535 178.152 328.977 177.543 340.656 181.633 371.945 183.922 388.227 184.785 394.371 185.395 398.383 185.395 398.383L200.812 397.137C200.812 397.137 205.598 389.117 213.781 389.574L214.836 387.449 255.699 305.348 263.57 289.102C263.57 289.102 267.57 277.504 271.766 274.914L277.289 248.988 281.688 228.336 281.078 228.168 273.488 228.215C273.488 228.215 258.457 263.461 222.82 241.039L215.652 241.68C215.652 241.68 200.273 238.176 191.609 230.305 191.609 230.305 186.293 231.75 179.137 230.703 176.469 230.316 173.551 229.574 170.555 228.289 167.352 226.914 164.062 224.914 160.906 222.035 146.871 209.219 132.543 197.488 132.543 197.488 132.543 197.488 139.648 212.227 139.324 226.418 138.996 240.613 142.348 263.035 128.617 262.07 118.277 261.344 111.949 249.066 111.949 249.066 111.949 249.066 117.953 267.879 137.863 280.527 143.125 283.867 148.473 287.707 153.484 291.836 166.926 302.91 177.914 316.109 178.164 327.645" fill="#474748"/>
<path d="M42.434 127.152C46.656 158.598 75.344 195.586 78.312 202.703 81.504 210.336 85.477 208.566 86.746 211.969 88.016 215.371 103.777 241.254 118.09 253.855 132.402 266.449 137.059 258.84 137.523 240.945 137.988 223.051 133.535 199.75 130.09 196.316 126.641 192.887 111.559 190.453 106.625 181.184 103.938 174.922 90.695 149.426 82.473 142.621 77.289 138.328 70.434 127.684 66.07 120.398L42.434 127.152" fill="#474748"/>
<path d="M38.32 126.059C38.32 126.059 59.965 122.145 75.93 110.914 75.93 110.914 71.062 94.082 65.637 88.25 63.895 86.383 62.289 84.031 61.008 81.199 60.066 79.145 59.301 76.848 58.781 74.305 57.781 69.418 57.672 63.629 58.984 56.949 61.918 42.004 60.848 30.566 54.027 28.293 47.211 26.02 43.742 30.77 42.895 37.973 42.176 44.117 39.805 50.457 39.129 52.188 39.012 52.48 38.941 52.645 38.941 52.645 38.941 52.645 31.23 45.316 23.105 38.668 16 32.844 8.578 27.551 5.75 28.188-7.273 37.574 5.902 47.898 5.902 47.898-4.273 67.02 14.281 74.418 14.281 74.418 8.934 81.285 13.402 89.047 20.582 94.039 27.762 99.035 30.156 113.668 34.977 121.742 36.023 123.496 37.168 124.914 38.32 126.059" fill="#474748"/>
<path d="M274.926 289.973 278.719 289.684C278.719 289.684 279.434 334.906 287.223 362.797 287.223 362.797 280.77 371.332 277.68 383.613 277.68 383.613 280.969 379.898 286.207 377.23 291.621 374.469 296.859 374.562 305.031 379.824L310.59 382.59C310.59 382.59 293.105 317.52 288.41 302.484L288.52 296.652C288.52 296.652 287.168 281.031 283.734 278.355L292.312 241.73 312.812 154.164 313.281 150.793C313.281 150.793 319.219 142.555 318.672 133.23L308.277 130.43C308.277 130.43 303.41 138.75 303.609 147.762L301.371 151.738 280.461 246.395 274.117 275.109C274.117 275.109 269.211 280.348 266.566 287.723L217.676 387.469 216.594 389.68C216.594 389.68 205.91 391.207 202.852 397.688 202.852 397.688 210.25 397.805 215.031 399.531L226.305 387.703 226.367 387.574 274.926 289.973" fill="#474748"/>
<path d="M278.691 146.941C271.758 136.984 247.418 138.086 231.363 142.504 215.309 146.922 188.176 155.133 187.766 183.438 187.766 183.438 193.746 201.004 194.375 205.984 195 210.961 200.816 216.145 204.266 215.922L208.594 206.754C208.594 206.754 218.664 241.598 245.914 237.789 273.176 233.984 274.859 200.121 274.125 195.551 274.125 195.551 276.539 197.949 278.504 193.891L281.516 199.07C281.516 199.07 290.711 193.461 287.223 177.875 283.734 162.289 288.508 159.203 288.508 159.203 288.508 159.203 285.629 156.898 278.691 146.941" fill="#474748"/>
<path d="M229.855 140.785C266.098 132.84 276.191 140.805 279.742 145.477 283.293 150.148 285.031 150.18 285.031 150.18 285.031 150.18 273.672 104.715 219.805 116.438 176.938 131.121 186.27 172.762 186.27 172.762 186.27 172.762 193.617 148.727 229.855 140.785" fill="#474748"/>
<path d="M254.395 384.691 260.469 379.984C260.469 379.984 268.734 387.062 273.715 383.559 273.715 383.559 278.395 365.363 283.426 362.129 283.426 362.129 271.91 322.086 275.934 294.973L231.219 387.684 230.398 389.379 219.312 402.121 234.582 412.969 238.137 387.902 238.277 386.906C238.277 386.906 249.863 383.664 254.395 384.691" fill="#474748"/>
<path d="M429.941 313.406 456.156 271.492 459.48 266.176 432.309 269.523 410.277 306.238 410.203 306.363 405.328 306.965 408.707 277.336 409.277 272.359 386.855 275.121 376.82 363.066 381.758 362.461 399.363 360.289 403.203 326.648 407.957 326.066 410.074 330.711 422.273 357.473 424.523 357.191 449.445 354.121 429.941 313.406" fill="#ffffff"/>
<path d="M503.672 289.52 505.441 300.176 507.445 312.273 500.062 313.18 493.555 313.984ZM521.613 263.43 520.652 258.641 492.746 262.078 454.809 353.465 461.324 352.66 479.055 350.477 485.93 334.469 509.934 331.512 511.062 336.277 513.422 346.242 516.66 345.844 537.668 343.258 521.613 263.43" fill="#ffffff"/>
<path d="M575.297 271.457 588.336 269.852C592.441 269.344 593.902 270.977 594.094 274.141 594.152 275.105 594.098 276.211 593.957 277.449 593.242 283.695 592.52 286.867 586.305 287.633L578.203 288.629 573.27 289.238ZM601.543 302.574C608.031 299.41 615.332 295.43 617.719 274.523 618.676 266.145 617.684 260.254 615.211 256.277 611.234 249.879 603.414 248.445 593.645 249.648L553.797 254.559 543.762 342.508 548.699 341.898 567.402 339.594 571.145 306.797 578.266 307.574 579.328 311.582 586.168 337.281 589.273 336.898 613.098 333.965 601.543 302.574" fill="#ffffff"/>
<path d="M665.742 269.559 667.508 280.215 669.508 292.309 662.125 293.219 655.617 294.02ZM623.387 332.695 641.121 330.516 647.992 314.504 672 311.547 673.129 316.316 675.484 326.281 678.727 325.883 699.734 323.293 683.68 243.469 682.719 238.68 654.812 242.117 644.621 266.672 616.871 333.5 623.387 332.695" fill="#ffffff"/>
<path d="M737.238 251.508 750.887 249.828C754.07 249.438 755.773 250.879 756.148 254.141 756.273 255.242 756.246 256.555 756.074 258.074 755.375 264.199 753.391 267.883 748.762 268.449L740.051 269.523 735.113 270.133ZM711.594 271.996 705.828 322.543 710.766 321.938 729.465 319.633 733.141 287.434C733.707 287.719 744.117 288.094 748.949 287.855 760.066 287.316 776.656 283.02 779.875 254.785 780.879 245.977 779.77 240.082 777.375 236.195 772.844 228.848 763.715 228.699 755.582 229.703L720.652 234.008 715.863 234.598 711.594 271.996" fill="#ffffff"/>
<path d="M793.457 307.883C799.707 311.809 808.602 310.477 816.891 309.457 831.633 307.641 851.77 304.922 856.195 266.113L861.277 221.594 861.844 216.613 838.082 219.543 832.434 269.043C831.199 279.855 830.117 287.215 819.277 288.551 816.938 288.84 815.098 288.785 813.656 288.43 807.953 287.031 808.496 280.875 809.523 271.863L814.605 227.34 815.172 222.363 791.535 225.277 785.887 274.773C783.602 294.777 787.207 303.957 793.457 307.883" fill="#ffffff"/>
<path d="M870.852 236.117 900.766 232.434 896.441 237.871 860.652 282.863 858.266 303.766 863.203 303.156 920.777 296.066 922.594 280.141 923.164 275.164 900.27 277.984 891.969 279.004 928.43 229.023 930.246 213.098 930.812 208.121 868.301 215.82 865.918 236.727 870.852 236.117" fill="#ffffff"/>
<path d="M933.512 294.5 952.215 292.195 955.875 260.117 976.59 257.566 976.023 262.539 972.93 289.645 977.867 289.035 996.57 286.73 1006.039 203.762 1006.609 198.785 982.965 201.695 978.977 236.66 963.199 238.602 958.262 239.211 961.684 209.223 962.25 204.246 938.609 207.16 928.574 295.109 933.512 294.5" fill="#ffffff"/>
<path d="M1056.27 244.672 1048.891 245.578 1042.379 246.379 1052.5 221.918 1054.27 232.574ZM1010.148 285.059 1027.891 282.871 1034.762 266.863 1058.77 263.91 1059.891 268.676 1062.25 278.641 1065.488 278.242 1086.5 275.652 1070.441 195.828 1069.48 191.039 1041.578 194.477 1003.641 285.859 1010.148 285.059" fill="#ffffff"/>
<path d="M412.16 396.633 413.926 407.289 414.789 412.504 415.93 419.383 408.547 420.293 402.039 421.094ZM430.102 370.539 429.141 365.754 401.234 369.191 385.625 406.789 363.293 460.574 369.809 459.773 387.543 457.59 394.414 441.578 418.422 438.621 419.551 443.391 421.906 453.355 425.145 452.957 446.156 450.367 430.102 370.539" fill="#ffffff"/>
<path d="M483.797 378.445 499.516 376.512C502.656 376.125 505 376.664 506.074 380.809 506.957 384.223 506.98 390.074 505.859 399.895 503.926 416.836 500.922 424.195 493.977 425.051L483.445 426.352 483.195 426.379 478.258 426.988ZM529.484 397.105C531.078 383.152 530.555 371.137 525.508 363.805 521.562 358.066 514.844 355.195 504.199 356.508L462.402 361.652 455.66 420.773 452.371 449.602 457.309 448.992 494.164 444.453C514.516 441.949 525.973 427.863 529.484 397.105" fill="#ffffff"/>
<path d="M615.328 347.727 617.406 342.562 592.547 345.625 572.551 399.555 569.812 406.945 562.508 354.234 561.84 349.406 536.98 352.469 552.172 437.309 555.68 436.879 580.684 433.797 615.328 347.727" fill="#ffffff"/>
<path d="M632.918 427.719C632.918 427.719 659.035 424.148 671.781 420.922L673.43 406.434 674 401.457 642.684 405.312C641.836 405.418 640.961 405.527 640.129 405.555 637.488 405.641 635.289 404.836 635.84 399.996L636.445 394.711 669.348 389.59 671.008 375.023 671.555 370.246 643.84 372.555 638.926 372.965 639.531 367.676C639.898 364.434 640.297 360.949 646.633 360.168L679.168 356.16 680.898 341 681.402 336.574C667.367 336.41 641.777 339.562 641.777 339.562 633.16 340.621 618.848 344.664 616.777 362.777L611.281 410.957C610.324 419.348 613.105 423.816 617.16 426.09 621.988 428.793 628.621 428.379 632.918 427.719" fill="#ffffff"/>
<path d="M738.121 328.023 733.457 368.891 733.031 372.625 714.945 335.453 712.691 330.824 688.809 333.77 678.773 421.715 683.711 421.109 702.535 418.789 707.527 375.055 711.5 382.887 728.039 415.465 728.125 415.637 730.152 415.387 751.766 412.727 761.23 329.754 761.801 324.777 738.734 327.617 738.16 327.688 738.121 328.023" fill="#ffffff"/>
<path d="M811.934 339.215 835.086 336.363 836.902 320.434 837.469 315.453 768.258 323.984 765.871 344.887 770.809 344.277 788.293 342.129 787.727 347.105 780.645 409.168 785.582 408.559 804.285 406.258 811.934 339.215" fill="#ffffff"/>
<path d="M870.625 398.68C885.371 396.859 905.504 394.145 909.93 355.336L915.012 310.812 915.578 305.836 891.816 308.762 886.172 358.262C884.938 369.074 883.855 376.438 873.012 377.773 870.672 378.059 868.832 378.008 867.391 377.652 861.691 376.254 862.234 370.098 863.262 361.086L868.34 316.562 868.91 311.586 845.27 314.496 839.621 363.996C837.34 383.996 840.945 393.18 847.191 397.105 853.445 401.031 862.34 399.699 870.625 398.68" fill="#ffffff"/>
<path d="M946.461 321.578 959.5 319.973C963.605 319.465 965.066 321.098 965.258 324.262 965.32 325.227 965.262 326.332 965.121 327.57 964.406 333.816 963.688 336.988 957.473 337.754L949.367 338.75 944.43 339.359ZM972.703 352.699C979.195 349.527 986.496 345.551 988.883 324.645 989.84 316.262 988.848 310.375 986.375 306.398 982.398 300 974.578 298.566 964.809 299.773L924.961 304.68 914.926 392.629 919.863 392.02 938.566 389.715 942.309 356.918 949.43 357.695 950.496 361.703 957.332 387.402 960.438 387.023 984.262 384.09 972.703 352.699" fill="#ffffff"/>
<path d="M1013.711 380.816C1013.711 380.816 1039.828 377.242 1052.57 374.016L1054.219 359.527 1054.789 354.551 1023.469 358.41C1022.629 358.516 1021.75 358.625 1020.922 358.652 1018.281 358.734 1016.078 357.934 1016.629 353.094L1017.238 347.805 1050.141 342.688 1051.801 328.117 1052.34 323.344 1024.629 325.648 1019.719 326.059 1020.32 320.773C1020.691 317.527 1021.09 314.043 1027.422 313.266L1059.961 309.258 1061.691 294.094 1062.191 289.672C1048.16 289.504 1022.57 292.656 1022.57 292.656 1013.949 293.719 999.637 297.758 997.57 315.875L992.074 364.055C991.117 372.445 993.895 376.914 997.949 379.184 1002.781 381.887 1009.41 381.477 1013.711 380.816" fill="#ffffff"/>
<path d="M393.598 532.07 385.297 533.094 421.758 483.113 423.574 467.188 424.141 462.211 361.629 469.91 359.242 490.816 364.18 490.207 394.094 486.523 389.77 491.965 355.617 534.891 353.98 536.949 351.594 557.855 356.531 557.246 414.105 550.156 415.926 534.227 416.281 531.086 416.492 529.25 393.598 532.07" fill="#ffffff"/>
<path d="M449.52 503.031C451.973 481.527 454.848 478.445 465.566 477.125 471.754 476.363 475.031 477.145 476.32 481.52 477.344 484.992 477.113 490.727 476.082 499.762 474.75 511.445 472.953 517.637 469.211 520.945 466.988 522.91 464.086 523.859 460.184 524.344 457.918 524.621 456.059 524.688 454.539 524.488 454.184 524.445 453.852 524.379 453.531 524.305 448.02 522.988 447.91 517.117 449.52 503.031ZM457.797 545.25C479.73 542.547 495.293 535.656 499.723 496.848 501.699 479.492 500.105 469.109 496.039 463.074 490.441 454.777 480.156 454.719 467.953 456.223 447.48 458.742 430.578 464.734 425.879 505.941 424.707 516.195 424.801 523.938 425.941 529.758 427.246 536.387 429.918 540.504 433.672 542.941 439.484 546.719 447.879 546.473 457.797 545.25" fill="#ffffff"/>
<path d="M585.637 447.223 586.047 443.617 586.203 442.246 580.387 442.965 562.562 445.16 557.863 486.359 557.438 490.094 539.352 452.926 537.098 448.297 513.215 451.238 506.523 509.867 503.18 539.184 508.117 538.574 526.941 536.258 531.93 492.523 535.902 500.355 538 504.484 552.531 533.105 554.555 532.855 576.168 530.195 585.637 447.223" fill="#ffffff"/>
<path d="M615.52 466.477C615.891 463.23 616.285 459.746 622.621 458.965L655.156 454.957 656.887 439.797 657.391 435.375C643.355 435.207 617.766 438.359 617.766 438.359 612.863 438.965 606.125 440.535 600.84 445.105 596.832 448.574 593.66 453.766 592.766 461.574L587.895 504.289 587.273 509.758C586.312 518.148 589.094 522.617 593.148 524.887 597.977 527.59 604.609 527.176 608.906 526.52 608.906 526.52 635.023 522.945 647.77 519.719L649.422 505.23 649.988 500.254 618.672 504.109C617.824 504.215 616.953 504.328 616.121 504.352 613.48 504.438 611.277 503.637 611.832 498.793L612.434 493.508 645.336 488.387 647 473.82 647.543 469.043 619.828 471.352 614.914 471.762 615.52 466.477" fill="#ffffff"/>
</g>
</svg>
